<svg width="20" height="20" viewBox="0 0 20 20" fill="none" xmlns="http://www.w3.org/2000/svg">
<path d="M1.6665 17.5H18.3332" stroke="white" stroke-width="2" stroke-linecap="round" stroke-linejoin="round"/>
<path d="M5.8335 10.8335H4.16683C3.70659 10.8335 3.3335 11.2066 3.3335 11.6668V16.6668C3.3335 17.1271 3.70659 17.5002 4.16683 17.5002H5.8335C6.29373 17.5002 6.66683 17.1271 6.66683 16.6668V11.6668C6.66683 11.2066 6.29373 10.8335 5.8335 10.8335Z" fill="white" stroke="white" stroke-width="2" stroke-linejoin="round"/>
<path d="M5 14.1665H5.41667" stroke="#666666" stroke-width="2" stroke-linecap="round" stroke-linejoin="round"/>
<path d="M15.8332 1.6665H7.49984C7.0396 1.6665 6.6665 2.0396 6.6665 2.49984V16.6665C6.6665 17.1267 7.0396 17.4998 7.49984 17.4998H15.8332C16.2934 17.4998 16.6665 17.1267 16.6665 16.6665V2.49984C16.6665 2.0396 16.2934 1.6665 15.8332 1.6665Z" fill="white" stroke="white" stroke-width="2" stroke-linejoin="round"/>
<path d="M10.8332 4.1665H9.1665V5.83317H10.8332V4.1665Z" fill="#666666"/>
<path d="M14.1667 4.1665H12.5V5.83317H14.1667V4.1665Z" fill="#666666"/>
<path d="M10.8332 7.0835H9.1665V8.75016H10.8332V7.0835Z" fill="#666666"/>
<path d="M14.1667 7.0835H12.5V8.75016H14.1667V7.0835Z" fill="#666666"/>
<path d="M14.1667 10H12.5V11.6667H14.1667V10Z" fill="#666666"/>
<path d="M14.1667 12.9165H12.5V14.5832H14.1667V12.9165Z" fill="#666666"/>
</svg>
