<svg width="20" height="20" viewBox="0 0 20 20" fill="none" xmlns="http://www.w3.org/2000/svg">
<path d="M15 13.3332C16.841 13.3332 18.3333 11.8408 18.3333 9.99984C18.3333 8.15888 16.841 6.6665 15 6.6665" fill="white"/>
<path d="M15 13.3332C16.841 13.3332 18.3333 11.8408 18.3333 9.99984C18.3333 8.15888 16.841 6.6665 15 6.6665" stroke="white" stroke-width="2" stroke-linejoin="round"/>
<path d="M4.99996 6.6665C3.15901 6.6665 1.66663 8.15888 1.66663 9.99984C1.66663 11.8408 3.15901 13.3332 4.99996 13.3332" fill="white"/>
<path d="M4.99996 6.6665C3.15901 6.6665 1.66663 8.15888 1.66663 9.99984C1.66663 11.8408 3.15901 13.3332 4.99996 13.3332" stroke="white" stroke-width="2" stroke-linejoin="round"/>
<path d="M5 13.3332V13.1248V12.0832V9.99984V6.6665C5 3.90508 7.23858 1.6665 10 1.6665C12.7614 1.6665 15 3.90508 15 6.6665V13.3332C15 16.0946 12.7614 18.3332 10 18.3332" stroke="white" stroke-width="2" stroke-linecap="round" stroke-linejoin="round"/>
</svg>
