<svg width="104" height="104" viewBox="0 0 104 104" fill="none" xmlns="http://www.w3.org/2000/svg">
<path d="M74.5 44.5V33.25H29.5V65.75H35.75C37.1307 65.75 38.25 66.8693 38.25 68.25V70.4546L47.1318 66.0137C47.479 65.8401 47.8619 65.75 48.25 65.75H53.875C55.2557 65.75 56.375 66.8693 56.375 68.25C56.375 69.6307 55.2557 70.75 53.875 70.75H48.8408L36.8682 76.7363C36.0934 77.1237 35.1735 77.0817 34.4365 76.6265C33.6995 76.1709 33.25 75.3664 33.25 74.5V70.75H27C25.6193 70.75 24.5 69.6307 24.5 68.25V30.75C24.5 29.3693 25.6193 28.25 27 28.25H77C78.3807 28.25 79.5 29.3693 79.5 30.75V44.5C79.5 45.8807 78.3807 47 77 47C75.6193 47 74.5 45.8807 74.5 44.5Z" fill="#00EF9E"/>
<path d="M77 55.75H59.5V65.75H77V55.75Z" fill="#00EF9E"/>
<path d="M77 53.25C78.3807 53.25 79.5 54.3693 79.5 55.75V65.75C79.5 67.1307 78.3807 68.25 77 68.25H59.5C58.1193 68.25 57 67.1307 57 65.75V55.75C57 54.3693 58.1193 53.25 59.5 53.25H77ZM62 63.25H74.5V58.25H62V63.25Z" fill="#00EF9E"/>
<path d="M69.5 55.75V52C69.5 51.3096 68.9404 50.75 68.25 50.75C67.5596 50.75 67 51.3096 67 52V55.75C67 57.1307 65.8807 58.25 64.5 58.25C63.1193 58.25 62 57.1307 62 55.75V52C62 48.5482 64.7982 45.75 68.25 45.75C71.7018 45.75 74.5 48.5482 74.5 52V55.75C74.5 57.1307 73.3807 58.25 72 58.25C70.6193 58.25 69.5 57.1307 69.5 55.75Z" fill="#00EF9E"/>
<path d="M44.5 38.25C45.8807 38.25 47 39.3693 47 40.75C47 42.1307 45.8807 43.25 44.5 43.25H37C35.6193 43.25 34.5 42.1307 34.5 40.75C34.5 39.3693 35.6193 38.25 37 38.25H44.5Z" fill="#00EF9E"/>
<path d="M52 45.75C53.3807 45.75 54.5 46.8693 54.5 48.25C54.5 49.6307 53.3807 50.75 52 50.75H37C35.6193 50.75 34.5 49.6307 34.5 48.25C34.5 46.8693 35.6193 45.75 37 45.75H52Z" fill="#00EF9E"/>
<circle cx="52" cy="52" r="51" stroke="#00EF9E" stroke-width="2"/>
</svg>
