<svg width="104" height="104" viewBox="0 0 104 104" fill="none" xmlns="http://www.w3.org/2000/svg">
<path d="M52 77C61.665 77 69.5 69.165 69.5 59.5C69.5 49.835 61.665 42 52 42C42.335 42 34.5 49.835 34.5 59.5C34.5 69.165 42.335 77 52 77Z" fill="#00EF9E"/>
<path d="M67 59.5C67 51.2157 60.2843 44.5 52 44.5C43.7157 44.5 37 51.2157 37 59.5C37 67.7843 43.7157 74.5 52 74.5C60.2843 74.5 67 67.7843 67 59.5ZM72 59.5C72 70.5457 63.0457 79.5 52 79.5C40.9543 79.5 32 70.5457 32 59.5C32 48.4543 40.9543 39.5 52 39.5C63.0457 39.5 72 48.4543 72 59.5Z" fill="#00EF9E"/>
<path d="M58.25 35.75C58.25 32.2982 55.4518 29.5 52 29.5C48.5482 29.5 45.75 32.2982 45.75 35.75V44.5H40.75V35.75C40.75 29.5368 45.7868 24.5 52 24.5C58.2132 24.5 63.25 29.5368 63.25 35.75V44.5H58.25V35.75Z" fill="#00EF9E"/>
<path d="M49.5 64.5V54.5C49.5 53.1193 50.6193 52 52 52C53.3807 52 54.5 53.1193 54.5 54.5V64.5C54.5 65.8807 53.3807 67 52 67C50.6193 67 49.5 65.8807 49.5 64.5Z" fill="black"/>
<circle cx="52" cy="52" r="51" stroke="#00EF9E" stroke-width="2"/>
</svg>
