<svg width="104" height="104" viewBox="0 0 104 104" fill="none" xmlns="http://www.w3.org/2000/svg">
<path d="M32 77V27H60.75L72 40.125V77H32Z" fill="#00EF9E"/>
<path d="M60.75 24.5C61.4798 24.5 62.172 24.8199 62.647 25.374L73.897 38.499C74.2854 38.9521 74.5 39.5282 74.5 40.125V77C74.5 78.3807 73.3807 79.5 72 79.5H32C30.6193 79.5 29.5 78.3807 29.5 77V27C29.5 25.6193 30.6193 24.5 32 24.5H60.75ZM34.5 74.5H69.5V41.0454L59.6025 29.5H34.5V74.5Z" fill="#00EF9E"/>
<path d="M52.0001 40.75L55.8552 49.1939L65.0771 50.251L58.2378 56.5268L60.0821 65.624L52.0001 61.0588L43.9181 65.624L45.7623 56.5268L38.9231 50.251L48.145 49.1939L52.0001 40.75Z" fill="black"/>
<path d="M51.9992 38.25C52.9781 38.25 53.8681 38.822 54.2746 39.7124L57.5412 46.8682L65.361 47.7666C66.3335 47.8781 67.1532 48.5471 67.4557 49.478C67.7582 50.4089 67.4884 51.431 66.7673 52.0928L60.9665 57.415L62.5314 65.1274C62.7259 66.0866 62.3441 67.0716 61.5524 67.647C60.7605 68.2223 59.7045 68.2822 58.8522 67.8008L51.9992 63.9287L45.1486 67.8008C44.2964 68.2822 43.2403 68.2223 42.4484 67.647C41.6566 67.0717 41.2726 66.0867 41.467 65.1274L43.0295 57.4126L37.2336 52.0928C36.5124 51.431 36.2426 50.409 36.5451 49.478C36.8476 48.5475 37.6654 47.8784 38.6374 47.7666L46.4572 46.8682L49.7263 39.7124L49.8996 39.3926C50.3553 38.6871 51.1431 38.2503 51.9992 38.25ZM50.4196 50.2324C50.0557 51.0296 49.3004 51.5779 48.4299 51.6777L44.6457 52.1099L47.4533 54.6855C48.0984 55.278 48.3866 56.1659 48.2126 57.0244L47.4557 60.7524L50.7712 58.8823L51.0641 58.7407C51.7643 58.4579 52.5621 58.5052 53.2297 58.8823L56.5427 60.7524L55.7883 57.0244C55.6142 56.1657 55.9021 55.278 56.5475 54.6855L59.3503 52.1099L55.571 51.6777C54.7004 51.5779 53.9453 51.0295 53.5812 50.2324L51.9992 46.7681L50.4196 50.2324Z" fill="black"/>
<circle cx="52" cy="52" r="51" stroke="#00EF9E" stroke-width="2"/>
</svg>
