<svg width="104" height="104" viewBox="0 0 104 104" fill="none" xmlns="http://www.w3.org/2000/svg">
<path d="M29.5 33.5696L52.0107 27L74.5 33.5696V47.0421C74.5 61.2028 65.4377 73.7743 52.0033 78.2506C38.5651 73.7744 29.5 61.2 29.5 47.0359V33.5696Z" fill="#00EF9E"/>
<path d="M27 47.0366V33.5698C27 32.459 27.733 31.4812 28.7993 31.1699L51.3115 24.6001L51.6582 24.5244C52.0094 24.4744 52.3698 24.4998 52.7129 24.6001L75.2007 31.1699C76.2668 31.4813 77 32.4591 77 33.5698V47.0415C77 62.2783 67.2489 75.8065 52.7935 80.623C52.2809 80.7938 51.7265 80.7936 51.2139 80.623C36.7549 75.8067 27.0003 62.2767 27 47.0366ZM32 47.0366C32.0003 59.8435 40.0234 71.2375 52.0024 75.5962C63.9788 71.2378 72 59.8457 72 47.0415V35.4424L52.0073 29.6025L32 35.4424V47.0366Z" fill="#00EF9E"/>
<path d="M62.7325 42.7325C63.7088 41.7562 65.2913 41.7562 66.2676 42.7325C67.2439 43.7088 67.2439 45.2913 66.2676 46.2676L51.2676 61.2676C50.2913 62.2439 48.7088 62.2439 47.7325 61.2676L38.9825 52.5176C38.0062 51.5413 38.0062 49.9588 38.9825 48.9825C39.9588 48.0062 41.5413 48.0062 42.5176 48.9825L49.5001 55.9649L62.7325 42.7325Z" fill="black"/>
<circle cx="52" cy="52" r="51" stroke="#00EF9E" stroke-width="2"/>
</svg>
